# xmcd
# Copyright (C) 1995-1998 Ti Kan
#
# Track frame offsets:
#       150
#       15375
#       33412
#       52575
#
# Disc length: 901 seconds
#
# Revision: 0
# Processed by: cddbd v1.4PL0 Copyright (c) Steve Scherf et al.
# Submitted via: CD-Transfer v1.0
#
DISCID=1e038304
DTITLE=Slimboy - Beautiful Baby
DYEAR=2002
DGENRE=
TTITLE0=Beautiful Baby
TTITLE1=Don't You Know
TTITLE2=Phunky Hi-Hats
TTITLE3=Beautiful Baby (Instrumental)
EXTD=
EXTT0=
EXTT1=
EXTT2=
EXTT3=
PLAYORDER=
